<?xml version="1.0" encoding="UTF-8" standalone="no"?>
<!DOCTYPE svg PUBLIC "-//W3C//DTD SVG 1.1//EN"
 "http://www.w3.org/Graphics/SVG/1.1/DTD/svg11.dtd">
<!-- Generated by graphviz version 2.43.0 (0)
 -->
<!-- Title: g Pages: 1 -->
<svg width="526pt" height="188pt"
 viewBox="0.00 0.00 525.88 188.00" xmlns="http://www.w3.org/2000/svg" xmlns:xlink="http://www.w3.org/1999/xlink">
<g id="graph0" class="graph" transform="scale(1 1) rotate(0) translate(4 184)">
<title>g</title>
<polygon fill="white" stroke="transparent" points="-4,4 -4,-184 521.88,-184 521.88,4 -4,4"/>
<!-- variable_unnamed_2 -->
<g id="node1" class="node">
<title>variable_unnamed_2</title>
<ellipse fill="none" stroke="black" cx="105.94" cy="-90" rx="105.88" ry="18"/>
<text text-anchor="middle" x="105.94" y="-86.3" font-family="Times,serif" font-size="14.00">variable_unnamed_2</text>
</g>
<!-- variable_unnamed_3 -->
<g id="node2" class="node">
<title>variable_unnamed_3</title>
<ellipse fill="none" stroke="black" cx="153.94" cy="-18" rx="105.88" ry="18"/>
<text text-anchor="middle" x="153.94" y="-14.3" font-family="Times,serif" font-size="14.00">variable_unnamed_3</text>
</g>
<!-- variable_unnamed_2&#45;&gt;variable_unnamed_3 -->
<g id="edge1" class="edge">
<title>variable_unnamed_2&#45;&gt;variable_unnamed_3</title>
<path fill="none" stroke="black" d="M791.7,-71.7C791.7,-63.98 791.7,-54.71 791.7,-46.11"/>
<polygon fill="black" stroke="black" points="795.2,-46.1 791.7,-36.1 788.2,-46.1 795.2,-46.1"/>
<path fill="none" stroke="black" d="M791.78,-18C794.39,-18 797,-18 799.62,-18"/>
<polygon fill="black" stroke="black" points="799.7,-21.5 809.7,-18 799.7,-14.5 799.7,-21.5"/>
<path fill="none" stroke="black" d="M560.82,-71.7C560.82,-63.98 560.82,-54.71 560.82,-46.11"/>
<polygon fill="black" stroke="black" points="564.32,-46.1 560.82,-36.1 557.32,-46.1 564.32,-46.1"/>
<path fill="none" stroke="black" d="M560.9,-18C563.51,-18 566.12,-18 568.74,-18"/>
<polygon fill="black" stroke="black" points="568.82,-21.5 578.82,-18 568.82,-14.5 568.82,-21.5"/>
<path fill="none" stroke="black" d="M117.56,-72.05C123.2,-63.84 130.08,-53.79 136.35,-44.66"/>
<polygon fill="black" stroke="black" points="139.33,-46.5 142.09,-36.28 133.55,-42.54 139.33,-46.5"/>
</g>
<!-- variable_custom -->
<g id="node3" class="node">
<title>variable_custom</title>
<ellipse fill="none" stroke="black" cx="387.94" cy="-18" rx="86.38" ry="18"/>
<text text-anchor="middle" x="387.94" y="-14.3" font-family="Times,serif" font-size="14.00">variable_custom</text>
</g>
<!-- variable_unnamed_1 -->
<g id="node4" class="node">
<title>variable_unnamed_1</title>
<ellipse fill="none" stroke="black" cx="411.94" cy="-90" rx="105.88" ry="18"/>
<text text-anchor="middle" x="411.94" y="-86.3" font-family="Times,serif" font-size="14.00">variable_unnamed_1</text>
</g>
<!-- variable_unnamed_1&#45;&gt;variable_custom -->
<g id="edge2" class="edge">
<title>variable_unnamed_1&#45;&gt;variable_custom</title>
<path fill="none" stroke="black" d="M790.82,-71.7C790.82,-63.98 790.82,-54.71 790.82,-46.11"/>
<polygon fill="black" stroke="black" points="794.32,-46.1 790.82,-36.1 787.32,-46.1 794.32,-46.1"/>
<path fill="none" stroke="black" d="M1021.11,-18C1023.42,-18 1025.72,-18 1028.03,-18"/>
<polygon fill="black" stroke="black" points="1028.14,-21.5 1038.14,-18 1028.14,-14.5 1028.14,-21.5"/>
<path fill="none" stroke="black" d="M406.01,-71.7C403.33,-63.9 400.11,-54.51 397.14,-45.83"/>
<polygon fill="black" stroke="black" points="400.36,-44.43 393.8,-36.1 393.74,-46.7 400.36,-44.43"/>
</g>
<!-- variable_unnamed_0 -->
<g id="node5" class="node">
<title>variable_unnamed_0</title>
<ellipse fill="none" stroke="black" cx="258.94" cy="-162" rx="105.88" ry="18"/>
<text text-anchor="middle" x="258.94" y="-158.3" font-family="Times,serif" font-size="14.00">variable_unnamed_0</text>
</g>
<!-- variable_unnamed_0&#45;&gt;variable_unnamed_2 -->
<g id="edge5" class="edge">
<title>variable_unnamed_0&#45;&gt;variable_unnamed_2</title>
<path fill="none" stroke="black" d="M223.84,-144.94C202.05,-134.97 173.85,-122.07 150.49,-111.38"/>
<polygon fill="black" stroke="black" points="151.69,-108.08 141.14,-107.11 148.78,-114.45 151.69,-108.08"/>
</g>
<!-- variable_unnamed_0&#45;&gt;variable_unnamed_3 -->
<g id="edge6" class="edge">
<title>variable_unnamed_0&#45;&gt;variable_unnamed_3</title>
<path fill="none" stroke="black" d="M254.43,-143.95C248.83,-125 237.88,-94.16 220.94,-72 212.19,-60.54 200.42,-50.15 189.19,-41.65"/>
<polygon fill="black" stroke="black" points="190.91,-38.58 180.76,-35.54 186.8,-44.25 190.91,-38.58"/>
</g>
<!-- variable_unnamed_0&#45;&gt;variable_custom -->
<g id="edge4" class="edge">
<title>variable_unnamed_0&#45;&gt;variable_custom</title>
<path fill="none" stroke="black" d="M262.79,-143.83C267.86,-124.5 278.37,-93.03 296.94,-72 308.98,-58.37 325.4,-47.33 340.99,-38.92"/>
<polygon fill="black" stroke="black" points="342.73,-41.96 350.02,-34.28 339.53,-35.74 342.73,-41.96"/>
</g>
<!-- variable_unnamed_0&#45;&gt;variable_unnamed_1 -->
<g id="edge3" class="edge">
<title>variable_unnamed_0&#45;&gt;variable_unnamed_1</title>
<path fill="none" stroke="black" d="M294.04,-144.94C315.83,-134.97 344.03,-122.07 367.39,-111.38"/>
<polygon fill="black" stroke="black" points="369.1,-114.45 376.74,-107.11 366.19,-108.08 369.1,-114.45"/>
</g>
</g>
</svg>
